<svg width="86" height="86" viewBox="0 0 86 86" fill="none" xmlns="http://www.w3.org/2000/svg">
<path d="M53.7498 81.5209H32.2498C12.7923 81.5209 4.479 73.2076 4.479 53.7501V32.2501C4.479 12.7926 12.7923 4.47925 32.2498 4.47925H50.1665C51.6357 4.47925 52.854 5.69758 52.854 7.16675C52.854 8.63591 51.6357 9.85425 50.1665 9.85425H32.2498C15.7307 9.85425 9.854 15.7309 9.854 32.2501V53.7501C9.854 70.2692 15.7307 76.1459 32.2498 76.1459H53.7498C70.269 76.1459 76.1457 70.2692 76.1457 53.7501V35.8334C76.1457 34.3642 77.364 33.1459 78.8332 33.1459C80.3023 33.1459 81.5207 34.3642 81.5207 35.8334V53.7501C81.5207 73.2076 73.2073 81.5209 53.7498 81.5209Z" fill="#9747FF"/>
<path d="M78.8332 38.5208H64.4998C52.2448 38.5208 47.479 33.7549 47.479 21.4999V7.16659C47.479 6.09159 48.124 5.08825 49.1273 4.69409C50.1307 4.26409 51.2773 4.51492 52.0657 5.26742L80.7323 33.9341C81.4848 34.6866 81.7357 35.8691 81.3057 36.8724C80.8757 37.8758 79.9082 38.5208 78.8332 38.5208ZM52.854 13.6524V21.4999C52.854 30.7449 55.2548 33.1458 64.4998 33.1458H72.3473L52.854 13.6524Z" fill="#9747FF"/>
<path d="M46.5835 49.2708H25.0835C23.6143 49.2708 22.396 48.0524 22.396 46.5833C22.396 45.1141 23.6143 43.8958 25.0835 43.8958H46.5835C48.0527 43.8958 49.271 45.1141 49.271 46.5833C49.271 48.0524 48.0527 49.2708 46.5835 49.2708Z" fill="#9747FF"/>
<path d="M39.4168 63.6042H25.0835C23.6143 63.6042 22.396 62.3859 22.396 60.9167C22.396 59.4476 23.6143 58.2292 25.0835 58.2292H39.4168C40.886 58.2292 42.1043 59.4476 42.1043 60.9167C42.1043 62.3859 40.886 63.6042 39.4168 63.6042Z" fill="#9747FF"/>
</svg>
