<svg width="86" height="86" viewBox="0 0 86 86" fill="none" xmlns="http://www.w3.org/2000/svg">
<path d="M43.0002 45.6876C31.641 45.6876 22.396 36.4426 22.396 25.0834C22.396 13.7242 31.641 4.47925 43.0002 4.47925C54.3593 4.47925 63.6043 13.7242 63.6043 25.0834C63.6043 36.4426 54.3593 45.6876 43.0002 45.6876ZM43.0002 9.85425C34.6152 9.85425 27.771 16.6984 27.771 25.0834C27.771 33.4684 34.6152 40.3126 43.0002 40.3126C51.3852 40.3126 58.2293 33.4684 58.2293 25.0834C58.2293 16.6984 51.3852 9.85425 43.0002 9.85425Z" fill="#32DEBF"/>
<path d="M12.2197 81.5208C10.7506 81.5208 9.53223 80.3025 9.53223 78.8333C9.53223 63.5325 24.5464 51.0625 43.0005 51.0625C46.6197 51.0625 50.1672 51.5284 53.6072 52.4959C55.0405 52.8901 55.8647 54.3592 55.4706 55.7925C55.0764 57.2259 53.6072 58.0501 52.1739 57.6559C49.2355 56.8318 46.1539 56.4375 43.0005 56.4375C27.5205 56.4375 14.9072 66.4708 14.9072 78.8333C14.9072 80.3025 13.6889 81.5208 12.2197 81.5208Z" fill="#32DEBF"/>
<path d="M64.4998 81.5209C58.5515 81.5209 52.9615 78.3676 49.9515 73.2434C48.339 70.6634 47.479 67.6176 47.479 64.5001C47.479 59.2684 49.8082 54.4308 53.8573 51.2058C56.8673 48.805 60.6657 47.4792 64.4998 47.4792C73.8882 47.4792 81.5207 55.1117 81.5207 64.5001C81.5207 67.6176 80.6607 70.6635 79.0482 73.2793C78.1523 74.7843 77.0056 76.1459 75.644 77.2926C72.6698 80.0159 68.6923 81.5209 64.4998 81.5209ZM64.4998 52.8542C61.8482 52.8542 59.3398 53.75 57.2257 55.4341C54.4665 57.62 52.854 60.9526 52.854 64.5001C52.854 66.6142 53.4273 68.6925 54.5382 70.4842C56.6165 73.9959 60.4507 76.1459 64.4998 76.1459C67.3307 76.1459 70.054 75.1068 72.1324 73.2434C73.064 72.4551 73.8523 71.5234 74.4256 70.5201C75.5723 68.6926 76.1457 66.6142 76.1457 64.5001C76.1457 58.0859 70.914 52.8542 64.4998 52.8542Z" fill="#32DEBF"/>
<path d="M62.457 70.7352C61.7761 70.7352 61.0953 70.4844 60.5578 69.9469L57.0103 66.3995C55.9712 65.3603 55.9712 63.6401 57.0103 62.6009C58.0495 61.5618 59.7695 61.5618 60.8087 62.6009L62.5287 64.3211L68.2619 59.0176C69.3369 58.0143 71.0569 58.0861 72.0603 59.1611C73.0636 60.2361 72.992 61.9561 71.917 62.9594L64.2845 70.0184C63.747 70.4843 63.102 70.7352 62.457 70.7352Z" fill="#32DEBF"/>
</svg>
