<svg width="86" height="86" viewBox="0 0 86 86" fill="none" xmlns="http://www.w3.org/2000/svg">
<path d="M43.0007 81.5207C40.5999 81.5207 38.1632 80.9115 36.0132 79.6573L14.7282 67.3665C10.4282 64.8582 7.74072 60.2356 7.74072 55.2548V30.7449C7.74072 25.7641 10.4282 21.1416 14.7282 18.6332L36.0132 6.34243C40.3132 3.8341 45.6524 3.8341 49.9882 6.34243L71.2732 18.6332C75.5732 21.1416 78.2607 25.7641 78.2607 30.7449V55.2548C78.2607 60.2356 75.5732 64.8582 71.2732 67.3665L49.9882 79.6573C47.8382 80.9115 45.4016 81.5207 43.0007 81.5207ZM43.0007 9.85403C41.5316 9.85403 40.0266 10.2482 38.7007 11.0007L17.4157 23.2915C14.7641 24.8324 13.1157 27.6633 13.1157 30.7449V55.2548C13.1157 58.3006 14.7641 61.1674 17.4157 62.7082L38.7007 74.999C41.3524 76.5398 44.6491 76.5398 47.3007 74.999L68.5857 62.7082C71.2374 61.1674 72.8857 58.3365 72.8857 55.2548V30.7449C72.8857 27.6991 71.2374 24.8324 68.5857 23.2915L47.3007 11.0007C45.9749 10.2482 44.4699 9.85403 43.0007 9.85403Z" fill="#32DEBF"/>
<path d="M42.9996 42.1045C36.9079 42.1045 31.9629 37.1594 31.9629 31.0678C31.9629 24.9761 36.9079 20.0312 42.9996 20.0312C49.0912 20.0312 54.0362 24.9761 54.0362 31.0678C54.0362 37.1594 49.0912 42.1045 42.9996 42.1045ZM42.9996 25.4062C39.8821 25.4062 37.3379 27.9503 37.3379 31.0678C37.3379 34.1853 39.8821 36.7295 42.9996 36.7295C46.1171 36.7295 48.6612 34.1853 48.6612 31.0678C48.6612 27.9503 46.1171 25.4062 42.9996 25.4062Z" fill="#32DEBF"/>
<path d="M57.3332 62.3861C55.864 62.3861 54.6457 61.1677 54.6457 59.6986C54.6457 54.7536 49.414 50.7046 42.9998 50.7046C36.5857 50.7046 31.354 54.7536 31.354 59.6986C31.354 61.1677 30.1357 62.3861 28.6665 62.3861C27.1973 62.3861 25.979 61.1677 25.979 59.6986C25.979 51.7794 33.6115 45.3296 42.9998 45.3296C52.3882 45.3296 60.0207 51.7794 60.0207 59.6986C60.0207 61.1677 58.8023 62.3861 57.3332 62.3861Z" fill="#32DEBF"/>
</svg>
