<svg width="48" height="49" viewBox="0 0 48 49" fill="none" xmlns="http://www.w3.org/2000/svg">
<path d="M32.38 4.5H15.62C8.34 4.5 4 8.84 4 16.12V32.86C4 40.16 8.34 44.5 15.62 44.5H32.36C39.64 44.5 43.98 40.16 43.98 32.88V16.12C44 8.84 39.66 4.5 32.38 4.5ZM33.76 23.56C33.76 24.34 33.14 24.96 32.36 24.96C31.58 24.96 30.96 24.34 30.96 23.56V23.2L25.52 28.64C25.22 28.94 24.82 29.08 24.4 29.04C23.98 29 23.6 28.78 23.38 28.42L21.34 25.38L16.58 30.14C16.3 30.42 15.96 30.54 15.6 30.54C15.24 30.54 14.88 30.4 14.62 30.14C14.08 29.6 14.08 28.72 14.62 28.16L20.58 22.2C20.88 21.9 21.28 21.76 21.7 21.8C22.12 21.84 22.5 22.06 22.72 22.42L24.76 25.46L28.98 21.24H28.62C27.84 21.24 27.22 20.62 27.22 19.84C27.22 19.06 27.84 18.44 28.62 18.44H32.34C32.52 18.44 32.7 18.48 32.88 18.54C33.22 18.68 33.5 18.96 33.64 19.3C33.72 19.48 33.74 19.66 33.74 19.84V23.56H33.76Z" fill="#32DEBF"/>
</svg>
