<svg width="86" height="86" viewBox="0 0 86 86" fill="none" xmlns="http://www.w3.org/2000/svg">
<g id="vuesax/outline/user-tick">
<g id="user-tick">
<path id="Vector" d="M43.0002 45.6878C31.641 45.6878 22.396 36.4428 22.396 25.0837C22.396 13.7245 31.641 4.47949 43.0002 4.47949C54.3593 4.47949 63.6043 13.7245 63.6043 25.0837C63.6043 36.4428 54.3593 45.6878 43.0002 45.6878ZM43.0002 9.85449C34.6152 9.85449 27.771 16.6987 27.771 25.0837C27.771 33.4687 34.6152 40.3128 43.0002 40.3128C51.3852 40.3128 58.2293 33.4687 58.2293 25.0837C58.2293 16.6987 51.3852 9.85449 43.0002 9.85449Z" fill="#9747FF"/>
<path id="Vector_2" d="M12.2197 81.5208C10.7506 81.5208 9.53223 80.3025 9.53223 78.8333C9.53223 63.5325 24.5464 51.0625 43.0005 51.0625C46.6197 51.0625 50.1672 51.5284 53.6072 52.4959C55.0405 52.8901 55.8647 54.3592 55.4706 55.7925C55.0764 57.2259 53.6072 58.0501 52.1739 57.6559C49.2355 56.8318 46.1539 56.4375 43.0005 56.4375C27.5205 56.4375 14.9072 66.4708 14.9072 78.8333C14.9072 80.3025 13.6889 81.5208 12.2197 81.5208Z" fill="#9747FF"/>
<path id="Vector_3" d="M62.457 70.7349C61.7761 70.7349 61.0953 70.4842 60.5578 69.9467L57.0103 66.3992C55.9712 65.3601 55.9712 63.6398 57.0103 62.6007C58.0495 61.5615 59.7695 61.5615 60.8087 62.6007L62.5287 64.3208L68.2619 59.0173C69.3369 58.014 71.0569 58.0858 72.0603 59.1608C73.0636 60.2358 72.992 61.9558 71.917 62.9591L64.2845 70.0182C63.747 70.484 63.102 70.7349 62.457 70.7349Z" fill="#9747FF"/>
</g>
</g>
</svg>
