<svg width="64" height="64" viewBox="0 0 64 64" fill="none" xmlns="http://www.w3.org/2000/svg">
<g id="image-edit-fill">
<path id="Vector" d="M53.3333 8C54.8061 8 56 9.19392 56 10.6667V15.352L50.6667 20.6853V13.3333H13.3333V34.9333L24 24.268L35.5413 35.8107L32.0032 39.3499L31.9867 50.6533L43.3104 50.6699L46.856 47.1227L50.3987 50.6667H50.6667V43.312L56 37.9787V53.3333C56 54.8061 54.8061 56 53.3333 56H10.6667C9.19392 56 8 54.8061 8 53.3333V10.6667C8 9.19392 9.19392 8 10.6667 8H53.3333ZM58.0752 20.8203L61.8464 24.5915L41.1045 45.3333L37.3277 45.3277L37.3333 41.5621L58.0752 20.8203ZM41.3333 18.6667C43.5424 18.6667 45.3333 20.4575 45.3333 22.6667C45.3333 24.8758 43.5424 26.6667 41.3333 26.6667C39.1243 26.6667 37.3333 24.8758 37.3333 22.6667C37.3333 20.4575 39.1243 18.6667 41.3333 18.6667Z" fill="white"/>
</g>
</svg>
