<svg width="36" height="37" viewBox="0 0 36 37" fill="none" xmlns="http://www.w3.org/2000/svg">
<path d="M12 19.1162H22.5" stroke="#7C2CBF" stroke-width="2.25" stroke-miterlimit="10" stroke-linecap="round" stroke-linejoin="round"/>
<path d="M12 25.1162H18.57" stroke="#7C2CBF" stroke-width="2.25" stroke-miterlimit="10" stroke-linecap="round" stroke-linejoin="round"/>
<path d="M15 9.81592H21C24 9.81592 24 8.31592 24 6.81592C24 3.81592 22.5 3.81592 21 3.81592H15C13.5 3.81592 12 3.81592 12 6.81592C12 9.81592 13.5 9.81592 15 9.81592Z" stroke="#7C2CBF" stroke-width="2.25" stroke-miterlimit="10" stroke-linecap="round" stroke-linejoin="round"/>
<path d="M24 6.8457C28.995 7.1157 31.5 8.9607 31.5 15.8157V24.8157C31.5 30.8157 30 33.8157 22.5 33.8157H13.5C6 33.8157 4.5 30.8157 4.5 24.8157V15.8157C4.5 8.9757 7.005 7.1157 12 6.8457" stroke="#7C2CBF" stroke-width="2.25" stroke-miterlimit="10" stroke-linecap="round" stroke-linejoin="round"/>
</svg>
