<svg width="36" height="37" viewBox="0 0 36 37" fill="none" xmlns="http://www.w3.org/2000/svg">
<path d="M18 3.81592V14.3159L21 11.3159" stroke="#9747FF" stroke-width="2.25" stroke-linecap="round" stroke-linejoin="round"/>
<path d="M18 14.3159L15 11.3159" stroke="#9747FF" stroke-width="2.25" stroke-linecap="round" stroke-linejoin="round"/>
<path d="M2.96973 20.3159H9.58473C10.1547 20.3159 10.6647 20.6309 10.9197 21.1409L12.6747 24.6509C13.1847 25.6709 14.2197 26.3159 15.3597 26.3159H20.6547C21.7947 26.3159 22.8297 25.6709 23.3397 24.6509L25.0947 21.1409C25.3497 20.6309 25.8747 20.3159 26.4297 20.3159H32.9697" stroke="#9747FF" stroke-width="2.25" stroke-linecap="round" stroke-linejoin="round"/>
<path d="M10.5 7.01074C5.19 7.79074 3 10.9107 3 17.3157V23.3157C3 30.8157 6 33.8157 13.5 33.8157H22.5C30 33.8157 33 30.8157 33 23.3157V17.3157C33 10.9107 30.81 7.79074 25.5 7.01074" stroke="#9747FF" stroke-width="2.25" stroke-linecap="round" stroke-linejoin="round"/>
</svg>
