<svg width="36" height="37" viewBox="0 0 36 37" fill="none" xmlns="http://www.w3.org/2000/svg">
<path d="M13.5 33.8159H22.5C30 33.8159 33 30.8159 33 23.3159V14.3159C33 6.81592 30 3.81592 22.5 3.81592H13.5C6 3.81592 3 6.81592 3 14.3159V23.3159C3 30.8159 6 33.8159 13.5 33.8159Z" stroke="#7C2CBF" stroke-width="2.25" stroke-linecap="round" stroke-linejoin="round"/>
<path d="M23.25 28.5659C24.9 28.5659 26.25 27.2159 26.25 25.5659V12.0659C26.25 10.4159 24.9 9.06592 23.25 9.06592C21.6 9.06592 20.25 10.4159 20.25 12.0659V25.5659C20.25 27.2159 21.585 28.5659 23.25 28.5659Z" stroke="#7C2CBF" stroke-width="2.25" stroke-linecap="round" stroke-linejoin="round"/>
<path d="M12.75 28.5659C14.4 28.5659 15.75 27.2159 15.75 25.5659V20.3159C15.75 18.6659 14.4 17.3159 12.75 17.3159C11.1 17.3159 9.75 18.6659 9.75 20.3159V25.5659C9.75 27.2159 11.085 28.5659 12.75 28.5659Z" stroke="#7C2CBF" stroke-width="2.25" stroke-linecap="round" stroke-linejoin="round"/>
</svg>
