<svg width="36" height="37" viewBox="0 0 36 37" fill="none" xmlns="http://www.w3.org/2000/svg">
<path d="M27.0001 11.5559C26.9101 11.5409 26.8051 11.5409 26.7151 11.5559C24.6451 11.4809 22.9951 9.78592 22.9951 7.68592C22.9951 5.54092 24.7201 3.81592 26.8651 3.81592C29.0101 3.81592 30.7351 5.55592 30.7351 7.68592C30.7201 9.78592 29.0701 11.4809 27.0001 11.5559Z" stroke="#9747FF" stroke-width="2.25" stroke-linecap="round" stroke-linejoin="round"/>
<path d="M25.4552 22.4762C27.5102 22.8212 29.7752 22.4612 31.3652 21.3962C33.4802 19.9862 33.4802 17.6762 31.3652 16.2662C29.7602 15.2012 27.4652 14.8412 25.4102 15.2012" stroke="#9747FF" stroke-width="2.25" stroke-linecap="round" stroke-linejoin="round"/>
<path d="M8.95473 11.5559C9.04473 11.5409 9.14973 11.5409 9.23973 11.5559C11.3097 11.4809 12.9597 9.78592 12.9597 7.68592C12.9597 5.54092 11.2347 3.81592 9.08973 3.81592C6.94473 3.81592 5.21973 5.55592 5.21973 7.68592C5.23473 9.78592 6.88473 11.4809 8.95473 11.5559Z" stroke="#9747FF" stroke-width="2.25" stroke-linecap="round" stroke-linejoin="round"/>
<path d="M10.4997 22.4762C8.44467 22.8212 6.17967 22.4612 4.58967 21.3962C2.47467 19.9862 2.47467 17.6762 4.58967 16.2662C6.19467 15.2012 8.48966 14.8412 10.5447 15.2012" stroke="#9747FF" stroke-width="2.25" stroke-linecap="round" stroke-linejoin="round"/>
<path d="M18.0001 22.761C17.9101 22.746 17.8051 22.746 17.7151 22.761C15.6451 22.686 13.9951 20.991 13.9951 18.891C13.9951 16.746 15.7201 15.021 17.8651 15.021C20.0101 15.021 21.7351 16.761 21.7351 18.891C21.7201 20.991 20.0701 22.701 18.0001 22.761Z" stroke="#9747FF" stroke-width="2.25" stroke-linecap="round" stroke-linejoin="round"/>
<path d="M13.6351 27.486C11.5201 28.896 11.5201 31.206 13.6351 32.616C16.0351 34.221 19.9651 34.221 22.3651 32.616C24.4801 31.206 24.4801 28.896 22.3651 27.486C19.9801 25.896 16.0351 25.896 13.6351 27.486Z" stroke="#9747FF" stroke-width="2.25" stroke-linecap="round" stroke-linejoin="round"/>
</svg>
