<svg width="36" height="37" viewBox="0 0 36 37" fill="none" xmlns="http://www.w3.org/2000/svg">
<path d="M18 23.3159C20.4853 23.3159 22.5 21.3012 22.5 18.8159C22.5 16.3306 20.4853 14.3159 18 14.3159C15.5147 14.3159 13.5 16.3306 13.5 18.8159C13.5 21.3012 15.5147 23.3159 18 23.3159Z" stroke="#9747FF" stroke-width="2.25" stroke-miterlimit="10" stroke-linecap="round" stroke-linejoin="round"/>
<path d="M3 20.1356V17.4956C3 15.9356 4.275 14.6456 5.85 14.6456C8.565 14.6456 9.675 12.7256 8.31 10.3706C7.53 9.02058 7.995 7.26558 9.36 6.48558L11.955 5.00058C13.14 4.29558 14.67 4.71558 15.375 5.90058L15.54 6.18558C16.89 8.54058 19.11 8.54058 20.475 6.18558L20.64 5.90058C21.345 4.71558 22.875 4.29558 24.06 5.00058L26.655 6.48558C28.02 7.26558 28.485 9.02058 27.705 10.3706C26.34 12.7256 27.45 14.6456 30.165 14.6456C31.725 14.6456 33.015 15.9206 33.015 17.4956V20.1356C33.015 21.6956 31.74 22.9856 30.165 22.9856C27.45 22.9856 26.34 24.9056 27.705 27.2606C28.485 28.6256 28.02 30.3656 26.655 31.1456L24.06 32.6306C22.875 33.3356 21.345 32.9156 20.64 31.7306L20.475 31.4456C19.125 29.0906 16.905 29.0906 15.54 31.4456L15.375 31.7306C14.67 32.9156 13.14 33.3356 11.955 32.6306L9.36 31.1456C7.995 30.3656 7.53 28.6106 8.31 27.2606C9.675 24.9056 8.565 22.9856 5.85 22.9856C4.275 22.9856 3 21.6956 3 20.1356Z" stroke="#9747FF" stroke-width="2.25" stroke-miterlimit="10" stroke-linecap="round" stroke-linejoin="round"/>
</svg>
