<svg width="32" height="32" viewBox="0 0 32 32" fill="none" xmlns="http://www.w3.org/2000/svg">
<g id="vuesax/linear/money-recive">
<g id="Group">
<path id="Vector" d="M12.667 18.3332C12.667 19.6265 13.667 20.6665 14.8937 20.6665H17.4003C18.467 20.6665 19.3337 19.7598 19.3337 18.6265C19.3337 17.4132 18.8003 16.9732 18.0137 16.6932L14.0003 15.2932C13.2137 15.0132 12.6803 14.5865 12.6803 13.3598C12.6803 12.2398 13.547 11.3198 14.6136 11.3198H17.1203C18.347 11.3198 19.347 12.3598 19.347 13.6532" stroke="white" stroke-width="2" stroke-linecap="round" stroke-linejoin="round"/>
<path id="Vector_2" d="M16 10V22" stroke="white" stroke-width="2" stroke-linecap="round" stroke-linejoin="round"/>
</g>
<path id="Vector_3" d="M29.3337 15.9998C29.3337 23.3598 23.3603 29.3332 16.0003 29.3332C8.64033 29.3332 2.66699 23.3598 2.66699 15.9998C2.66699 8.63984 8.64033 2.6665 16.0003 2.6665" stroke="white" stroke-width="2" stroke-linecap="round" stroke-linejoin="round"/>
<path id="Vector_4" d="M22.667 4V9.33333H28.0003" stroke="white" stroke-width="2" stroke-linecap="round" stroke-linejoin="round"/>
<path id="Vector_5" d="M29.3337 2.6665L22.667 9.33317" stroke="white" stroke-width="2" stroke-linecap="round" stroke-linejoin="round"/>
</g>
</svg>
