<svg width="32" height="32" viewBox="0 0 32 32" fill="none" xmlns="http://www.w3.org/2000/svg">
<g id="vuesax/linear/people">
<g id="people">
<g id="Group">
<path id="Vector" d="M24.0004 9.54651C23.9204 9.53318 23.8271 9.53318 23.7471 9.54651C21.9071 9.47984 20.4404 7.97317 20.4404 6.10651C20.4404 4.19984 21.9738 2.6665 23.8804 2.6665C25.7871 2.6665 27.3204 4.21317 27.3204 6.10651C27.3071 7.97317 25.8404 9.47984 24.0004 9.54651Z" stroke="white" stroke-width="2" stroke-linecap="round" stroke-linejoin="round"/>
<path id="Vector_2" d="M22.6269 19.2534C24.4536 19.5601 26.4669 19.2401 27.8803 18.2934C29.7603 17.0401 29.7603 14.9867 27.8803 13.7334C26.4536 12.7867 24.4136 12.4667 22.5869 12.7867" stroke="white" stroke-width="2" stroke-linecap="round" stroke-linejoin="round"/>
</g>
<g id="Group_2">
<path id="Vector_3" d="M7.95965 9.54651C8.03965 9.53318 8.13298 9.53318 8.21298 9.54651C10.053 9.47984 11.5196 7.97317 11.5196 6.10651C11.5196 4.19984 9.98632 2.6665 8.07965 2.6665C6.17298 2.6665 4.63965 4.21317 4.63965 6.10651C4.65298 7.97317 6.11965 9.47984 7.95965 9.54651Z" stroke="white" stroke-width="2" stroke-linecap="round" stroke-linejoin="round"/>
<path id="Vector_4" d="M9.33325 19.2534C7.50659 19.5601 5.49325 19.2401 4.07992 18.2934C2.19992 17.0401 2.19992 14.9867 4.07992 13.7334C5.50659 12.7867 7.54658 12.4667 9.37325 12.7867" stroke="white" stroke-width="2" stroke-linecap="round" stroke-linejoin="round"/>
</g>
<g id="Group_3">
<path id="Vector_5" d="M16.0004 19.5065C15.9204 19.4931 15.8271 19.4931 15.7471 19.5065C13.9071 19.4398 12.4404 17.9331 12.4404 16.0665C12.4404 14.1598 13.9738 12.6265 15.8804 12.6265C17.7871 12.6265 19.3204 14.1731 19.3204 16.0665C19.3071 17.9331 17.8404 19.4531 16.0004 19.5065Z" stroke="white" stroke-width="2" stroke-linecap="round" stroke-linejoin="round"/>
<path id="Vector_6" d="M12.12 23.7065C10.24 24.9598 10.24 27.0131 12.12 28.2665C14.2533 29.6931 17.7466 29.6931 19.88 28.2665C21.76 27.0131 21.76 24.9598 19.88 23.7065C17.76 22.2932 14.2533 22.2932 12.12 23.7065Z" stroke="white" stroke-width="2" stroke-linecap="round" stroke-linejoin="round"/>
</g>
</g>
</g>
</svg>
