<svg width="161" height="56" viewBox="0 0 161 56" fill="none" xmlns="http://www.w3.org/2000/svg">
<path d="M12.8054 0.0806179C10.972 0.450136 9.80664 1.914 9.80664 3.86108C9.80664 5.66603 10.8157 7.04462 12.4928 7.51362C13.5018 7.79787 13.8287 7.79787 14.7809 7.51362C15.8611 7.18674 16.9554 6.0924 17.2681 4.96963C18.0924 2.16982 15.6479 -0.502085 12.8054 0.0806179Z" fill="white"/>
<path d="M99.2442 0.0805664C97.3823 0.435873 96.2027 1.8571 96.1601 3.76154C96.1459 4.998 96.487 5.85074 97.3397 6.64662C98.1498 7.41409 98.832 7.66991 100.054 7.65569C102.186 7.64148 103.792 5.99286 103.792 3.8326C103.792 1.43073 101.603 -0.388437 99.2442 0.0805664Z" fill="white"/>
<path d="M140.119 7.92582C139.067 8.62222 139.138 7.49945 139.138 24.2273C139.138 40.9551 139.067 39.8323 140.119 40.5287C140.559 40.8272 140.758 40.8556 142.677 40.8556C144.965 40.8556 145.463 40.7277 146.017 39.9602C146.301 39.5765 146.315 39.3349 146.386 33.7779L146.458 27.9935L146.827 27.2118C147.324 26.1317 147.822 25.5916 148.689 25.1653C150.309 24.3552 152.142 24.9947 153.038 26.686L153.422 27.425L153.493 33.5647L153.564 39.7044L153.976 40.1308C154.63 40.813 154.956 40.884 157.301 40.8272C159.206 40.7845 159.49 40.7561 159.845 40.4861C160.755 39.8181 160.741 39.9176 160.741 32.4704C160.741 26.8565 160.698 25.5632 160.528 24.8668C159.845 22.2518 157.614 20.191 154.843 19.6083C152.81 19.1819 151.176 19.3951 148.973 20.39C147.538 21.0295 147.083 21.0864 146.671 20.6742C146.401 20.4042 146.386 20.2052 146.386 14.7193C146.386 9.07701 146.386 9.0628 146.06 8.57958C145.505 7.74106 145.022 7.59894 142.677 7.59894C140.758 7.59894 140.559 7.62736 140.119 7.92582Z" fill="white"/>
<path d="M84.6484 12.1895C84.4636 12.3316 84.4068 12.5022 84.4494 12.8006C84.4778 13.028 86.3965 16.0552 88.7841 19.6225C91.3992 23.5451 93.1757 26.3449 93.3605 26.8565C94.2132 29.1447 94.5259 34.2327 93.9432 36.5351C93.5737 37.9563 92.7494 39.676 91.8682 40.8414C90.6886 42.4047 86.7092 45.5883 84.5773 46.6684C83.3409 47.3079 81.3938 47.6633 76.4763 48.1749C67.281 49.1271 61.9088 49.184 48.464 48.4591C43.305 48.1891 40.7468 47.8054 37.6769 46.8816C33.328 45.5598 29.3912 42.4758 27.6431 39.008C26.833 37.402 26.5629 36.3787 26.4777 34.659C26.3924 32.8683 26.435 32.5841 27.4015 29.3437C27.9984 27.354 28.0552 26.9986 28.0552 25.7195C28.041 22.6781 26.7761 19.7078 24.4311 17.1922C23.1804 15.8705 21.9297 14.9467 20.2527 14.1366C18.2488 13.1559 16.9697 12.8433 14.6389 12.758C13.0755 12.7011 12.4644 12.7438 11.37 12.9712C5.74199 14.1366 1.42147 18.4287 0.270279 23.9999C0.0286704 25.1937 0.000245942 26.0749 0.000245942 35.8813C0.000245942 47.7059 -0.0423908 47.1374 0.995103 47.7485C1.43568 48.0043 1.73414 48.0328 3.55331 48.0328C5.8699 48.0328 6.33891 47.8906 6.77949 47.0663C7.0211 46.64 7.03531 45.7872 7.10637 35.8102L7.17743 25.0089L7.70328 23.9146C9.86355 19.3667 15.5911 18.3576 19.1157 21.8965C20.4375 23.204 21.3186 25.4921 21.1339 27.0839C21.0912 27.4392 20.7928 28.3062 20.4659 29.0026C19.5137 31.0776 19.4 31.575 19.4142 33.8916C19.4142 36.2792 19.6558 37.7289 20.409 39.8892C21.2618 42.3337 22.4272 44.3234 24.2037 46.3699C26.7903 49.3403 30.8977 52.069 34.9766 53.4761C40.093 55.2668 51.5907 56.3043 61.9941 55.9206C70.3935 55.6221 80.072 54.613 84.8474 53.5613C88.6562 52.7086 92.0245 50.7331 95.3644 47.3932C97.3257 45.4461 98.2495 44.2381 99.1875 42.4189C100.31 40.2302 100.793 38.3827 101.334 34.0337C101.689 31.2339 101.874 30.5375 102.712 28.8747C105.171 23.9714 108.681 20.0489 113.414 16.908C114.92 15.8989 117.976 14.1081 118.445 13.9518C118.772 13.8381 118.346 13.4259 117.607 13.1559C115.077 12.2037 110.031 13.5823 106.521 16.1831C105.896 16.6521 104.304 18.1018 102.968 19.3951C101.646 20.7026 100.41 21.8396 100.239 21.9391C99.8413 22.1381 99.1307 22.1381 98.7327 21.9391C98.5622 21.8538 97.4252 20.8021 96.2172 19.6083C93.4884 16.9222 89.8785 13.696 89.0542 13.2128C87.6187 12.3742 85.16 11.7915 84.6484 12.1895Z" fill="white"/>
<path d="M44.5555 18.5424C39.9224 19.2672 36.1703 22.1807 34.4791 26.416C33.669 28.4341 33.4984 29.3863 33.4842 31.8308C33.47 33.9627 33.4984 34.1759 33.8679 35.2418C34.877 38.1269 36.9662 39.9745 40.2919 40.884C41.9405 41.3246 45.4225 41.3246 47.2417 40.884C48.8619 40.4719 50.1552 39.9318 51.3064 39.1501C52.2159 38.539 54.1488 36.7341 54.1488 36.5067C54.1488 36.4356 52.9123 35.725 51.4201 34.9291L48.6913 33.4795L48.0233 34.1048C46.929 35.1281 46.0478 35.4976 44.5413 35.5687C43.3901 35.6255 43.1912 35.5971 42.5516 35.2702C42.1679 35.0712 41.7131 34.7586 41.5425 34.5738C41.2583 34.2753 40.6188 33.0247 40.704 32.9394C40.7182 32.9252 41.642 32.7831 42.7648 32.6267C49.544 31.6603 53.5093 29.6422 54.7315 26.5439C55.2289 25.2932 55.2005 23.4456 54.6889 22.3371C53.9356 20.7311 52.2586 19.4946 49.8851 18.8266C48.6629 18.4855 45.9341 18.3292 44.5555 18.5424ZM47.5401 24.5115C47.8101 24.7674 47.8954 24.9805 47.8954 25.4353C47.8954 27.0271 45.9057 28.1783 42.2816 28.6615C41.6278 28.7468 41.0451 28.7894 40.9883 28.7326C40.8461 28.5904 41.8694 26.6149 42.4237 25.9612C43.5323 24.6821 44.8256 24.0567 46.2894 24.1278C46.9858 24.1562 47.2559 24.2415 47.5401 24.5115Z" fill="white"/>
<path d="M68.8587 19.6083C66.8975 20.0204 64.8367 21.3422 63.586 22.9908C59.7771 28.0219 60.8288 36.5067 65.6752 39.8039C67.4659 41.0119 69.3704 41.5378 71.4454 41.3815C72.5966 41.2962 73.5062 40.9409 75.1263 39.9176C75.6948 39.5765 76.306 39.2923 76.5049 39.2923C76.7323 39.2923 77.1587 39.5339 77.6277 39.946C78.0399 40.3013 78.5231 40.6566 78.7078 40.7277C78.8926 40.7988 79.9585 40.8556 81.0955 40.8556C83.3126 40.8556 83.6253 40.7845 84.279 40.0739L84.6343 39.6902V30.1254V20.5463L84.2222 20.1199C83.5684 19.4377 83.2415 19.3667 80.8255 19.4235L78.6226 19.4662L77.8409 20.2052C76.9029 21.1006 76.5191 21.1574 75.3253 20.5889C73.4777 19.7078 72.7387 19.5088 71.2748 19.452C70.3795 19.4235 69.4841 19.4804 68.8587 19.6083ZM74.501 24.9663C75.24 25.1795 76.3912 26.2312 76.8034 27.0555C77.5566 28.5336 77.6561 30.8928 77.045 32.4988C76.6328 33.5789 75.6806 34.6164 74.7284 35.0286C74.1031 35.2986 73.8188 35.3413 72.9661 35.2702C72.3692 35.2276 71.7296 35.0854 71.4027 34.9149C68.7593 33.5647 67.9918 29.4858 69.8394 26.7002C70.8769 25.1369 72.7529 24.4405 74.501 24.9663Z" fill="white"/>
<path d="M116.612 19.6083C114.65 20.0204 112.59 21.3422 111.339 22.9908C107.53 28.0219 108.582 36.5067 113.428 39.8039C115.219 41.0119 117.123 41.5378 119.198 41.3815C120.349 41.2962 121.259 40.9409 122.879 39.9176C123.448 39.5765 124.059 39.2923 124.258 39.2923C124.485 39.2923 124.912 39.5339 125.381 39.946C125.793 40.3013 126.276 40.6566 126.461 40.7277C126.646 40.7988 127.711 40.8556 128.848 40.8556C131.066 40.8556 131.378 40.7845 132.032 40.0739L132.387 39.6902V30.1254V20.5463L131.975 20.1199C131.321 19.4377 130.994 19.3667 128.578 19.4235L126.375 19.4662L125.594 20.2052C124.656 21.1006 124.272 21.1574 123.078 20.5889C121.231 19.7078 120.492 19.5088 119.028 19.452C118.132 19.4235 117.237 19.4804 116.612 19.6083ZM122.254 24.9663C122.993 25.1795 124.144 26.2312 124.556 27.0555C125.31 28.5336 125.409 30.8928 124.798 32.4988C124.386 33.5789 123.434 34.6164 122.481 35.0286C121.856 35.2986 121.572 35.3413 120.719 35.2702C120.122 35.2276 119.483 35.0854 119.156 34.9149C116.512 33.5647 115.745 29.4858 117.592 26.7002C118.63 25.1369 120.506 24.4405 122.254 24.9663Z" fill="white"/>
</svg>
