<svg width="25" height="24" viewBox="0 0 25 24" fill="none" xmlns="http://www.w3.org/2000/svg">
<path d="M14.1313 14L16.6313 16.5" stroke="#7C2CBF" stroke-width="1.5" stroke-linejoin="round"/>
<path d="M16.5646 18.5252C15.9869 17.9475 15.9869 17.0109 16.5646 16.4333C17.1422 15.8556 18.0788 15.8556 18.6565 16.4333L21.698 19.4748C22.2757 20.0525 22.2757 20.9891 21.698 21.5667C21.1204 22.1444 20.1838 22.1444 19.6061 21.5667L16.5646 18.5252Z" stroke="#7C2CBF" stroke-width="1.5" stroke-linecap="round"/>
<path d="M16.1313 9C16.1313 5.13401 12.9973 2 9.13135 2C5.26536 2 2.13135 5.13401 2.13135 9C2.13135 12.866 5.26536 16 9.13135 16C12.9973 16 16.1313 12.866 16.1313 9Z" stroke="#7C2CBF" stroke-width="1.5" stroke-linejoin="round"/>
</svg>
