<svg width="32" height="33" viewBox="0 0 32 33" fill="none" xmlns="http://www.w3.org/2000/svg">
<g id="google-fill">
<path id="Vector" d="M4.38486 10.0976C6.5975 5.70281 11.1449 2.68945 16.4016 2.68945C20.0261 2.68945 23.0699 4.02198 25.3988 6.19178L21.5419 10.0486C20.1484 8.71618 18.3757 8.03768 16.4016 8.03768C12.8992 8.03768 9.9347 10.4031 8.87738 13.5815C8.60837 14.3883 8.45556 15.2501 8.45556 16.1364C8.45556 17.0227 8.60837 17.8845 8.87738 18.6913C9.9347 21.8697 12.8992 24.2351 16.4016 24.2351C18.2107 24.2351 19.7511 23.7584 20.9552 22.9516C22.3793 21.9981 23.3267 20.5739 23.6385 18.8931H16.4016V13.6915H29.0661C29.2251 14.5716 29.3107 15.4885 29.3107 16.4421C29.3107 20.5372 27.8437 23.9845 25.3009 26.3256C23.0761 28.3794 20.0322 29.5834 16.4016 29.5834C11.1449 29.5834 6.5975 26.5701 4.38486 22.1753C3.47415 20.36 2.95459 18.3062 2.95459 16.1364C2.95459 13.9666 3.47415 11.9129 4.38486 10.0976Z" fill="white"/>
</g>
</svg>
