<svg width="32" height="32" viewBox="0 0 32 32" fill="none" xmlns="http://www.w3.org/2000/svg">
<g id="store-2-fill">
<path id="Vector" d="M29.3333 26.667V29.3337H2.66668V26.667H4.00001V17.6566C2.39202 16.5803 1.33334 14.7473 1.33334 12.667C1.33334 11.5641 1.63258 10.5019 2.17764 9.59694L5.79374 3.33366C6.03192 2.92113 6.47209 2.66699 6.94844 2.66699H25.0516C25.5279 2.66699 25.9681 2.92113 26.2063 3.33366L29.81 9.57595C30.3675 10.5019 30.6667 11.5641 30.6667 12.667C30.6667 14.7473 29.608 16.5803 28 17.6566V26.667H29.3333ZM7.71821 5.33366L4.47465 10.9513C4.16546 11.4649 4.00001 12.0522 4.00001 12.667C4.00001 14.5079 5.4924 16.0003 7.33334 16.0003C8.70796 16.0003 9.92624 15.1607 10.4291 13.9063C10.8765 12.79 12.4568 12.79 12.9043 13.9063C13.4071 15.1607 14.6253 16.0003 16 16.0003C17.3747 16.0003 18.5929 15.1607 19.0957 13.9063C19.5432 12.79 21.1235 12.79 21.5709 13.9063C22.0737 15.1607 23.292 16.0003 24.6667 16.0003C26.5076 16.0003 28 14.5079 28 12.667C28 12.0522 27.8345 11.4649 27.5129 10.9303L24.2817 5.33366H7.71821Z" fill="white"/>
</g>
</svg>
