<svg width="24" height="25" viewBox="0 0 24 25" fill="none" xmlns="http://www.w3.org/2000/svg">
<g id="facebook-01">
<path id="Vector" d="M2.5 12.3228C2.5 7.84441 2.5 5.60524 3.89124 4.21399C5.28249 2.82275 7.52166 2.82275 12 2.82275C16.4783 2.82275 18.7175 2.82275 20.1088 4.21399C21.5 5.60524 21.5 7.84441 21.5 12.3228C21.5 16.8011 21.5 19.0403 20.1088 20.4316C18.7175 21.8228 16.4783 21.8228 12 21.8228C7.52166 21.8228 5.28249 21.8228 3.89124 20.4316C2.5 19.0403 2.5 16.8011 2.5 12.3228Z" stroke="black" stroke-width="1.5" stroke-linejoin="round"/>
<path id="Vector_2" d="M16.9265 8.34912H13.9816C12.9378 8.34912 12.0894 9.19122 12.0817 10.235L11.9964 21.7496M10.082 14.3245H14.8847" stroke="black" stroke-width="1.5" stroke-linecap="round" stroke-linejoin="round"/>
</g>
</svg>
