<svg width="24" height="25" viewBox="0 0 24 25" fill="none" xmlns="http://www.w3.org/2000/svg">
<g id="instagram">
<path id="Vector" d="M2.5 12.3228C2.5 7.84441 2.5 5.60524 3.89124 4.21399C5.28249 2.82275 7.52166 2.82275 12 2.82275C16.4783 2.82275 18.7175 2.82275 20.1088 4.21399C21.5 5.60524 21.5 7.84441 21.5 12.3228C21.5 16.8011 21.5 19.0403 20.1088 20.4316C18.7175 21.8228 16.4783 21.8228 12 21.8228C7.52166 21.8228 5.28249 21.8228 3.89124 20.4316C2.5 19.0403 2.5 16.8011 2.5 12.3228Z" stroke="black" stroke-width="1.5" stroke-linejoin="round"/>
<path id="Vector_2" d="M16.5 12.3228C16.5 14.8081 14.4853 16.8228 12 16.8228C9.51472 16.8228 7.5 14.8081 7.5 12.3228C7.5 9.83747 9.51472 7.82275 12 7.82275C14.4853 7.82275 16.5 9.83747 16.5 12.3228Z" stroke="black" stroke-width="1.5"/>
<path id="Vector_3" d="M17.5078 6.82275H17.4988" stroke="black" stroke-width="2" stroke-linecap="round" stroke-linejoin="round"/>
</g>
</svg>
