<svg width="24" height="25" viewBox="0 0 24 25" fill="none" xmlns="http://www.w3.org/2000/svg">
<g id="linkedin-01">
<path id="Vector" d="M7 10.3228V17.3228" stroke="black" stroke-width="1.5" stroke-linecap="round" stroke-linejoin="round"/>
<path id="Vector_2" d="M11 13.3228V17.3228M11 13.3228C11 11.6659 12.3431 10.3228 14 10.3228C15.6569 10.3228 17 11.6659 17 13.3228V17.3228M11 13.3228V10.3228" stroke="black" stroke-width="1.5" stroke-linecap="round" stroke-linejoin="round"/>
<path id="Vector_3" d="M7.00801 7.32275H6.99902" stroke="black" stroke-width="2" stroke-linecap="round" stroke-linejoin="round"/>
<path id="Vector_4" d="M2.5 12.3228C2.5 7.84441 2.5 5.60524 3.89124 4.21399C5.28249 2.82275 7.52166 2.82275 12 2.82275C16.4783 2.82275 18.7175 2.82275 20.1088 4.21399C21.5 5.60524 21.5 7.84441 21.5 12.3228C21.5 16.8011 21.5 19.0403 20.1088 20.4316C18.7175 21.8228 16.4783 21.8228 12 21.8228C7.52166 21.8228 5.28249 21.8228 3.89124 20.4316C2.5 19.0403 2.5 16.8011 2.5 12.3228Z" stroke="black" stroke-width="1.5" stroke-linejoin="round"/>
</g>
</svg>
