<svg width="24" height="25" viewBox="0 0 24 25" fill="none" xmlns="http://www.w3.org/2000/svg">
<g id="new-twitter-rectangle">
<path id="Vector" d="M2.50012 12.3228C2.50012 7.84441 2.50012 5.60524 3.89136 4.21399C5.28261 2.82275 7.52178 2.82275 12.0001 2.82275C16.4785 2.82275 18.7176 2.82275 20.1089 4.21399C21.5001 5.60524 21.5001 7.84441 21.5001 12.3228C21.5001 16.8011 21.5001 19.0403 20.1089 20.4316C18.7176 21.8228 16.4785 21.8228 12.0001 21.8228C7.52178 21.8228 5.28261 21.8228 3.89136 20.4316C2.50012 19.0403 2.50012 16.8011 2.50012 12.3228Z" stroke="black" stroke-width="1.5" stroke-linecap="round" stroke-linejoin="round"/>
<path id="Vector_2" d="M7.00012 17.3228L11.1937 13.1293M11.1937 13.1293L7.00012 7.32275H9.7779L12.8066 11.5163M11.1937 13.1293L14.2223 17.3228H17.0001L12.8066 11.5163M17.0001 7.32275L12.8066 11.5163" stroke="black" stroke-width="1.5" stroke-linecap="round" stroke-linejoin="round"/>
</g>
</svg>
