<svg width="24" height="25" viewBox="0 0 24 25" fill="none" xmlns="http://www.w3.org/2000/svg">
<g id="youtube">
<path id="Vector" d="M12 20.8228C13.8097 20.8228 15.5451 20.644 17.1534 20.3162C19.1623 19.9067 20.1668 19.7019 21.0834 18.5234C22 17.3449 22 15.9921 22 13.2863V11.3593C22 8.65348 22 7.30062 21.0834 6.12212C20.1668 4.94363 19.1623 4.73888 17.1534 4.32937C15.5451 4.00152 13.8097 3.82275 12 3.82275C10.1903 3.82275 8.45489 4.00152 6.84656 4.32937C4.83766 4.73888 3.83321 4.94363 2.9166 6.12212C2 7.30062 2 8.65348 2 11.3593V13.2863C2 15.9921 2 17.3449 2.9166 18.5234C3.83321 19.7019 4.83766 19.9067 6.84656 20.3162C8.45489 20.644 10.1903 20.8228 12 20.8228Z" stroke="black" stroke-width="1.5"/>
<path id="Vector_2" d="M15.9621 12.6357C15.8137 13.2415 15.0241 13.6766 13.4449 14.5469C11.7272 15.4933 10.8684 15.9666 10.1728 15.7843C9.9372 15.7225 9.7202 15.6139 9.53799 15.4666C9 15.0317 9 14.1287 9 12.3228C9 10.5169 9 9.61387 9.53799 9.17893C9.7202 9.03161 9.9372 8.92304 10.1728 8.86129C10.8684 8.67896 11.7272 9.1522 13.4449 10.0987C15.0241 10.969 15.8137 11.4041 15.9621 12.0099C16.0126 12.2161 16.0126 12.4295 15.9621 12.6357Z" stroke="black" stroke-width="1.5" stroke-linejoin="round"/>
</g>
</svg>
